<?xml version="1.0" standalone="no"?>
<!DOCTYPE svg PUBLIC "-//W3C//DTD SVG 20010904//EN"
 "http://www.w3.org/TR/2001/REC-SVG-20010904/DTD/svg10.dtd">
<svg version="1.0" xmlns="http://www.w3.org/2000/svg"
 width="2239.000000pt" height="2170.000000pt" viewBox="0 0 2239.000000 2170.000000"
 preserveAspectRatio="xMidYMid meet">

<g transform="translate(0.000000,2170.000000) scale(0.100000,-0.100000)"
fill="#000000" stroke="none">
<path d="M8265 19489 c-1779 -117 -3385 -1045 -4373 -2526 -520 -778 -823
-1634 -924 -2603 -21 -201 -18 -894 5 -1100 79 -705 254 -1316 553 -1920 454
-919 1131 -1684 1984 -2243 797 -522 1691 -828 2663 -913 l77 -6 0 -2892 c0
-2778 1 -2893 19 -2931 42 -94 119 -140 232 -140 67 0 81 4 125 30 55 34 107
111 118 172 3 21 6 1323 6 2894 l0 2856 158 7 c603 26 1237 160 1802 381 792
309 1531 811 2096 1423 l114 123 0 3733 0 3733 -134 144 c-482 518 -1141 989
-1797 1285 -634 285 -1292 447 -2004 494 -172 11 -544 11 -720 -1z m2197
-2791 c51 -15 126 -82 149 -133 12 -25 19 -64 19 -105 l0 -65 -940 -1864 -940
-1864 2 -859 3 -860 565 833 c311 459 583 854 605 878 52 57 104 81 181 81
118 0 218 -80 243 -197 12 -60 0 -122 -37 -184 -15 -26 -372 -555 -794 -1177
l-768 -1130 0 -941 0 -941 -189 0 c-103 0 -216 3 -250 6 l-61 7 0 2148 0 2149
-57 58 c-32 32 -539 561 -1128 1175 -786 822 -1076 1131 -1092 1165 -32 66
-31 143 3 210 63 126 210 175 333 112 28 -14 360 -354 1053 -1078 557 -581
1016 -1057 1021 -1057 5 0 411 795 901 1767 519 1029 904 1781 922 1799 63 67
166 94 256 67z"/>
<path d="M14515 16729 c-132 -19 -248 -75 -330 -157 l-55 -55 0 101 0 102
-165 0 -165 0 0 -745 0 -745 175 0 175 0 0 405 c0 259 4 423 11 457 28 131
102 227 216 281 59 27 80 31 175 35 l108 5 0 163 0 164 -42 -1 c-24 -1 -70 -5
-103 -10z"/>
<path d="M17585 16730 c-123 -20 -258 -80 -333 -150 -24 -22 -45 -40 -47 -40
-3 0 -5 41 -5 90 l0 90 -165 0 -165 0 0 -745 0 -745 175 0 175 0 0 408 c0 435
5 489 51 588 32 69 115 147 186 175 49 20 76 24 178 24 102 0 127 -3 166 -21
91 -42 153 -128 178 -242 7 -35 11 -205 11 -492 l0 -440 176 0 175 0 -3 508
c-4 563 -4 556 -75 702 -65 134 -193 235 -348 275 -74 20 -249 27 -330 15z"/>
<path d="M14962 16213 c4 -564 4 -557 74 -702 67 -136 194 -233 364 -278 103
-27 304 -24 400 5 92 29 163 68 229 128 l51 46 0 -91 0 -91 165 0 165 0 0 745
0 745 -175 0 -175 0 0 -427 c0 -454 -3 -484 -50 -576 -33 -64 -105 -132 -174
-164 -56 -26 -70 -28 -176 -28 -96 1 -123 5 -162 22 -90 42 -152 126 -177 241
-7 35 -11 205 -11 492 l0 440 -176 0 -175 0 3 -507z"/>
<path d="M14176 14539 c-140 -21 -317 -87 -393 -145 l-34 -26 62 -116 c34 -64
65 -121 69 -125 3 -4 33 8 65 28 128 77 259 109 420 103 120 -5 186 -26 252
-82 44 -37 82 -119 89 -193 l7 -63 -214 0 c-397 0 -544 -33 -672 -150 -166
-152 -162 -443 9 -599 107 -98 236 -141 430 -141 186 0 342 54 425 148 l39 45
0 -87 0 -86 165 0 165 0 0 469 c0 588 -7 640 -106 791 -66 102 -165 170 -304
211 -61 18 -106 22 -245 25 -93 1 -197 -1 -229 -7z m532 -942 c2 -79 0 -93
-22 -130 -86 -146 -273 -217 -459 -173 -31 7 -75 25 -96 39 -93 61 -108 212
-30 284 62 57 150 71 419 69 l185 -1 3 -88z"/>
<path d="M15805 14530 c-280 -59 -437 -236 -422 -476 8 -132 56 -218 160 -285
81 -52 186 -84 397 -120 224 -38 289 -59 331 -106 27 -32 31 -41 26 -80 -6
-60 -50 -105 -125 -129 -45 -15 -85 -19 -192 -18 -163 2 -284 29 -422 97 l-89
43 -65 -123 c-36 -68 -63 -130 -60 -138 15 -40 235 -122 405 -150 155 -26 393
-17 516 19 114 35 196 78 257 138 133 129 157 352 56 504 -68 102 -205 162
-474 209 -258 44 -329 69 -364 128 -26 42 -25 86 3 127 49 75 156 105 332 97
135 -7 206 -23 313 -72 l72 -34 63 122 c34 67 63 127 65 134 7 27 -177 93
-331 118 -129 21 -339 18 -452 -5z"/>
<path d="M18590 12470 l0 -170 -120 0 -120 0 0 -140 0 -140 120 0 120 0 0
-392 c0 -423 5 -477 54 -583 29 -65 94 -137 153 -172 108 -63 284 -88 430 -60
80 15 181 55 202 80 8 10 -2 44 -36 133 -26 65 -48 120 -48 121 0 1 -24 -9
-52 -23 -63 -31 -155 -42 -218 -24 -54 15 -109 71 -124 127 -7 24 -11 180 -11
416 l0 377 200 0 200 0 0 140 0 140 -200 0 -200 0 0 170 0 170 -175 0 -175 0
0 -170z"/>
<path d="M14515 12319 c-132 -19 -252 -76 -332 -158 l-53 -53 0 101 0 101
-165 0 -165 0 0 -745 0 -745 175 0 175 0 0 405 c0 425 4 470 46 560 38 81 87
130 171 172 72 35 83 38 185 42 l108 3 0 164 0 164 -42 -1 c-24 -1 -70 -5
-103 -10z"/>
<path d="M15475 12320 c-410 -64 -674 -386 -652 -795 10 -178 56 -306 157
-437 273 -354 891 -385 1214 -62 309 309 277 877 -64 1135 -83 64 -186 114
-286 140 -91 23 -278 33 -369 19z m308 -319 c239 -93 344 -401 223 -656 -126
-268 -493 -330 -704 -118 -170 169 -173 494 -8 671 49 52 138 105 202 121 67
17 222 7 287 -18z"/>
<path d="M17270 12319 c-196 -30 -387 -138 -495 -280 -96 -127 -142 -260 -151
-434 -20 -376 199 -678 562 -776 105 -29 334 -31 438 -6 429 107 665 506 561
947 -61 256 -270 460 -541 531 -93 23 -278 33 -374 18z m313 -319 c172 -66
272 -229 271 -440 -2 -233 -132 -404 -342 -449 -318 -67 -576 185 -534 522 24
194 137 333 311 383 71 20 223 12 294 -16z"/>
</g>
</svg>
